<?xml version="1.0" encoding="utf-8"?>
<!-- Generator: Adobe Illustrator 27.5.0, SVG Export Plug-In . SVG Version: 6.00 Build 0)  -->
<svg version="1.1" xmlns="http://www.w3.org/2000/svg" xmlns:xlink="http://www.w3.org/1999/xlink" x="0px" y="0px"
	 viewBox="0 0 1122 1122" style="enable-background:new 0 0 1122 1122;" xml:space="preserve">
<!-- <g id="background">
	<rect x="0.11" style="fill:#FFFFFF;" width="1122" height="1122"/>
</g> -->
<g id="shadow">
	<g style="opacity:0.5;">
		<path style="fill:#EED5D5;" d="M129.088,806.648c-24.138,17.898-32.648,38.521,16.793,51.655
			c40.546,10.771,86.619,3.875,128.18,2.205c56.104-2.252,112.458-0.065,168.066,6.483c101.18,11.914-15.036,21.979,18.033,56.882
			c4.192,4.424,10.781,6.76,17.215,8.566c24.561,6.896,50.756,8.616,76.658,9.708c111.449,4.699,223.114-1.254,334.44-7.634
			c30.729-1.761,62.18-3.699,90.32-14.065c28.14-10.366,52.773-31.023,56.096-56.37c2.978-22.753-18.78-38.486-41.152-47.448
			c-31.755-12.719-66.564-20.191-101.786-21.847c-11.242-0.529-22.951-0.555-33.048-4.68c-10.097-4.125-17.913-13.932-14.107-22.702
			c7.43-17.122,30.68-21.358,8.635-37.512c-15.668-11.481-52.855-15.992-72.781-20.464c-50.203-11.269-101.901-17.47-153.749-20.381
			c-105.52-5.926-211.338,1.641-316.4,9.548c-44.283,3.333-89.554,6.877-129.971,22.217c-9.094,3.451-18.341,7.857-23.139,15.122
			c-4.797,7.265-3.053,18.023,5.937,21.656c7.633,3.084,16.631,0.088,25.123-0.061c8.492-0.149,18.731,6.537,14.253,12.51
			c-1.677,2.237-4.852,3.321-7.819,4.272C177.196,779.978,148.229,792.456,129.088,806.648z"/>
	</g>
</g>
<g id="object">
	<g>
		<g>
			<g>
				<path style="fill:#EED5D5;" d="M775.294,804.625l-46.913-557.07c-1.44-17.095-79.693-32.534-174.812-34.807
					c-95.118-2.273-174.02,9.411-176.274,26.418L303.83,793.359L775.294,804.625z"/>
			</g>
			<g>
				<g>
					
						<ellipse transform="matrix(0.0239 -0.9997 0.9997 0.0239 -273.9193 1321.0164)" style="fill:#D67086;" cx="539.519" cy="800.779" rx="17.878" ry="235.101"/>
				</g>
				<g>
					<path style="fill:#D67086;" d="M395.529,276.439c31.8,14.844,74.512,17.007,109.074,19.863
						c60.777,5.021,121.228,0.634,181.091-10.526c11.152-2.079,39.443-11.234,20.175-24.82
						c-10.242-7.222-24.471-9.949-36.528-12.521c-44.103-9.406-89.313-13.198-134.364-13.213
						c-42.369-0.014-87.661,0.304-128.217,13.878c-6.01,2.011-14.384,5.611-18.541,11.287
						C383.023,267.48,387.408,272.648,395.529,276.439z"/>
				</g>
			</g>
		</g>
		<g style="opacity:0.67;">
			<g>
				<path style="fill:#292949;" d="M446.688,742.874c2.682,2.928,6.02,5.215,9.753,6.483c14.204,4.824,26.067,11.429,41.654,13.917
					c17.337,2.767,35.006,2.992,52.48,1.654c21.78-1.668,49.575-5.673,53.991-32.893c2.352-14.498-4.371-19.475-15.225-27.812
					c-5.976-4.59-12.205-8.915-19.032-12.014c-20.393-9.255-43.865-6.729-65.846-2.872c-14.73,2.585-27.474,7.648-41.507,12.26
					c-11.895,3.909-22.768,8.556-23.032,23.934C439.814,731.926,442.42,738.213,446.688,742.874z"/>
			</g>
			<g>
				<path style="fill:#5D66D3;" d="M559.649,526.07l43.573,108.933h21.787c0,0-43.573-119.826-54.466-119.826
					C559.649,515.177,559.649,526.07,559.649,526.07z"/>
			</g>
			<g>
				<path style="fill:#5D66D3;" d="M505.052,506.282c-16.715,12.748-27.175,32.169-35.901,51.522
					c-19.199,42.583-32.499,87.935-39.382,134.286c-1.93,12.995-2.113,41.853,17.413,39.937c6.585-0.646,12.386-4.468,18.185-7.719
					c15.684-8.795,33.504-14.049,51.385-13.39c30.443,1.122,57.507,18.455,87.661,21.155c5.115,0.458,14.854,2.3,18.009-2.535
					c3.126-4.79-0.214-19.892-0.824-25.394c-2.069-18.659-6.726-36.901-11.346-55.035
					C598.487,602.935,586.814,443.926,505.052,506.282z"/>
			</g>
			<g>
				<polygon style="fill:#292949;" points="585.714,778.709 588.53,791.916 564.933,810.755 548.91,800.364 559.3,784.341 
					582.898,765.502 				"/>
			</g>
			<g>
				<polygon style="fill:#292949;" points="486.379,778.709 483.563,791.916 507.16,810.755 523.183,800.364 512.793,784.341 
					489.195,765.502 				"/>
			</g>
			<g>
				<g>
					<path style="fill:#EACDB0;" d="M521.946,504.654c6.42,0.053,12.841,0.106,19.261,0.159c0.501-5.584,0.593-11.222,0.277-16.84
						c5.466-1.424,11.838-3.773,13.24-9.746c0.442-1.881,0.293-3.874,0.141-5.823c-0.627-8.056-1.253-16.112-1.879-24.167
						c-0.217-2.786-0.455-5.656-1.628-8.159c-2.059-4.392-6.541-6.732-10.854-8.078c-11.008-3.434-23.394-2.205-32.688,4.803
						c-2.474,1.865-4.76,4.188-6.021,7.184c-1.944,4.62-1.188,10.055-0.393,15.128c0.734,4.682,1.467,9.364,2.201,14.046
						c0.844,5.385,2.189,11.552,6.639,14.055c2.363,1.329,5.273,1.362,7.366,3.164C521.298,493.56,520.273,499.861,521.946,504.654z
						"/>
				</g>
				<g>
					<path style="fill:#292949;" d="M463.638,418.224c-0.943-2.104-1.976-4.148-3.158-6.091c-2.562-4.207-5.832-7.94-7.801-12.508
						c-1.969-4.568-2.323-10.489,0.754-14.123c1.986-2.345,4.984-3.283,7.871-3.862c9.515-1.907,19.546-0.939,28.716,2.774
						c8.734,3.536,16.401,8.596,25.678,5.969c8.717-2.469,14.706-0.347,23.262,4.138c9.258,4.853,22.012,7.234,30.245,13.52
						c3.438,2.625,6.049,6.403,7.996,10.467c6.747,14.081,5.365,32.246-3.389,44.558c-1.964,2.762-4.249,5.23-6.629,7.563
						c-4.927,4.829-10.836,10.815-17.19,12.074c0.329-6.095,6.884-24.67,3.016-30.15c-6.138-8.696-21.636-7.726-30.173-6.761
						c-9.312,1.053-18.02,7.198-27.206,7.654c-6.61,0.328-14.661-4.153-19.92-8.499
						C469.221,439.582,467.078,425.902,463.638,418.224z"/>
				</g>
			</g>
			<g>
				<path style="fill:#5D66D3;" d="M437.626,595.932c8.086-10.146,16.328-20.44,26.959-27.877c0.724-0.507,1.557-1.022,2.428-0.875
					c1.283,0.216,1.889,1.698,2.11,2.98c0.922,5.351-0.794,10.766-2.488,15.924c-2.992,9.112-6.014,18.296-10.764,26.628
					c-1.774,3.112-3.907,6.208-7.056,7.914c-4.403,2.385-15.823,2.241-19.173-2.394
					C424.868,611.628,433.835,600.688,437.626,595.932z"/>
			</g>
			<g>
				<path style="fill:#FFFFFF;" d="M526.969,515.177h10.893l43.573,206.972c0,0-32.68-10.893-54.466-10.893
					c-21.786,0-32.68,0-32.68,0s0-54.466,10.893-76.253C516.076,613.216,526.969,515.177,526.969,515.177z"/>
			</g>
			<g>
				<path style="fill:#292949;" d="M464.542,648.73c-2.154-12.149-4.418-24.863-1.655-36.832
					c3.662-15.86,16.087-27.492,29.513-30.487c9.823-2.191,20.991,0.263,27.584,9.314c7.338,10.073,7.159,24.975,6.462,38.357
					c-2.719,52.19-7.133,104.252-13.228,156.026c-0.056,0.49-27.84,1.804-28.303-0.598c-1.519-7.893-4.807-31.138-5.84-39.434
					C475.056,712.791,470.202,680.655,464.542,648.73z"/>
			</g>
			<g>
				<path style="fill:#292949;" d="M527.034,652.032c-3.267-11.9-6.696-24.352-5.05-36.527
					c2.182-16.133,13.481-28.865,26.575-33.087c9.58-3.089,20.929-1.677,28.33,6.727c8.238,9.354,9.437,24.211,9.978,37.601
					c2.113,52.226,2.526,104.48,1.238,156.604c-0.011,0.493-27.527,4.358-28.241,2.018c-2.482-8.135-7.664-30.566-9.458-38.731
					C543.422,714.857,535.62,683.302,527.034,652.032z"/>
			</g>
			<g>
				<g>
					<path style="fill:#EACDB0;" d="M588.964,614.019c-0.622-0.682-1.095-1.348-1.517-2.039c-0.458-0.749-0.857-1.527-1.325-2.389
						c-0.156-0.288-4.474-6.13-4.185-4.482l0.597,3.402l-8.358-5.816l-8.236,0.692l-5.623,9.451c0,0,1.414,11.22,1.421,11.273
						c0.211,1.63,9.309,4.071,10.848,4.056c1.857-0.018,3.39-0.87,5.157-0.743c2.83,0.203,6.475,2.392,9.156,3.381
						c0.372,0.137,0.805,0.271,1.148,0.071c0.214-0.125,0.341-0.354,0.458-0.573c1.802-3.37,3.57-6.758,5.303-10.164
						c0.302-0.593,0.607-1.292,0.328-1.896C593.433,616.72,590.189,615.363,588.964,614.019z"/>
				</g>
				<g>
					<g>
						<path style="fill:#5D66D3;" d="M595.089,640.421c3.303,2.308,6.314,4.085,10.676,5.473c3.24,1.03,6.798,1.878,9.977,0.675
							c2.111-0.798,3.807-2.425,5.208-4.193c3.177-4.008,5.146-9.043,5.115-14.158c-0.013-2.178-0.402-4.405-1.513-6.279
							c-3.172-5.351-10.593-4.904-15.929-5.477c-1.347-0.144-16.972-2.51-17.102-2.203c-0.003,0.006-7.714,18.251-7.714,18.251
							c0,1.148,7.513,5.197,8.557,5.957C593.314,639.158,594.212,639.808,595.089,640.421z"/>
					</g>
				</g>
			</g>
			<g>
				<g>
					<path style="fill:#EACDB0;" d="M466.184,601.915c0.622-0.682,1.095-1.348,1.517-2.039c0.458-0.749,0.857-1.527,1.325-2.389
						c0.156-0.288,4.474-6.13,4.185-4.482l-0.597,3.402l8.358-5.816l8.235,0.692l5.623,9.451c0,0-1.414,11.22-1.421,11.273
						c-0.211,1.63-9.309,4.071-10.848,4.056c-1.857-0.018-3.39-0.87-5.157-0.743c-2.83,0.203-6.475,2.392-9.156,3.381
						c-0.372,0.137-0.805,0.271-1.148,0.071c-0.214-0.125-0.341-0.354-0.458-0.573c-1.802-3.37-3.57-6.758-5.303-10.164
						c-0.302-0.593-0.607-1.292-0.328-1.896C461.715,604.617,464.959,603.259,466.184,601.915z"/>
				</g>
				<g>
					<g>
						<path style="fill:#5D66D3;" d="M460.059,628.317c-3.303,2.308-6.314,4.085-10.676,5.473c-3.24,1.03-6.798,1.878-9.978,0.675
							c-2.111-0.799-3.807-2.425-5.208-4.193c-3.177-4.008-5.146-9.043-5.115-14.158c0.013-2.178,0.402-4.405,1.513-6.279
							c3.172-5.351,10.593-4.904,15.929-5.477c1.347-0.145,16.972-2.51,17.102-2.203c0.003,0.006,7.714,18.251,7.714,18.251
							c0,1.148-7.513,5.197-8.557,5.957C461.834,627.054,460.936,627.705,460.059,628.317z"/>
					</g>
				</g>
			</g>
		</g>
		<g style="opacity:0.47;">
			<path style="fill:#FFFFFF;" d="M718.1,521.236l18.524,224.47c0,0,15.982,44.774-53.393,50.56
				c-72.767,6.07-147.517,5.533-147.517,5.533s113.737-1.252,144.248-68.99C710.472,665.071,718.1,521.236,718.1,521.236z"/>
		</g>
		<g style="opacity:0.21;">
			<path style="fill:#FFFFFF;" d="M395.537,321.913c-3.057-0.878-7.548,1.075-8.042,4.566
				c-13.048,92.125-25.993,184.263-38.914,276.406c-3.67,26.173-7.339,52.346-11.007,78.519c-0.494,3.524,0.861,6.979,4.566,8.042
				c3.053,0.877,7.553-1.074,8.042-4.566c12.914-92.143,25.829-184.287,38.825-276.419c3.691-26.17,7.39-52.338,11.096-78.506
				C400.603,326.432,399.239,322.976,395.537,321.913z"/>
		</g>
		<g style="opacity:0.21;">
			<path style="fill:#FFFFFF;" d="M308.678,723.986c-0.978-0.001-1.94,0.124-2.869,0.347c-0.309-0.015-0.616-0.049-0.925-0.049
				c-2.354-0.001-5.021,1.315-6.102,3.5c-2.301,4.652-2.331,10.4,0.324,14.639c0.369,1.02,0.902,2.021,1.65,2.989
				c3.606,4.667,10.618,5.061,15.155,1.555c0.352-0.272,0.676-0.567,0.986-0.871c2.348-1.57,4.156-3.975,4.878-7.117
				C323.647,730.838,316.614,723.996,308.678,723.986z"/>
		</g>
		<g style="opacity:0.23;">
			<path style="fill:#FFFFFF;" d="M480.001,649.292c-44.056,54.157-89.135,109.243-147.8,147.09
				c63.229,1.22,130.477-0.522,183.439-35.082c24.956-16.285,45.086-38.935,63.33-62.498
				c46.2-59.671,82.037-127.252,106.133-198.742c12.296-36.479,21.543-73.991,27.557-112.015
				c4.469-28.254,16.646-76.429,6.134-103.208c-23.924,7.093-32.454,50.044-41.102,70.046
				c-15.589,36.059-34.522,70.598-55.39,103.856C580.111,525.979,530.018,587.808,480.001,649.292z"/>
		</g>
	</g>
</g>
</svg>
